<svg xmlns="http://www.w3.org/2000/svg" width="112" height="112" viewBox="0 0 112 112"><defs><linearGradient id="card" x2="0.7" y2="1"><stop stop-color="#65567d"/><stop offset="1" stop-color="#332d4a"/></linearGradient></defs><rect x="12" y="15" width="67" height="84" rx="11" fill="#c3abc9" stroke="#a38dba" stroke-width="3" transform="rotate(-12 45 57)"/><rect x="30" y="10" width="69" height="91" rx="12" fill="url(#card)" stroke="#dec389" stroke-width="3"/><path d="M37 72Q43 40 62 45Q88 35 93 73L80 68L65 79L49 68Z" fill="#ae758d"/><path d="M47 44L43 28L57 39M73 39L86 27L82 47" fill="#e0c1a0"/><ellipse cx="65" cy="55" rx="22" ry="23" fill="#9587b8"/><ellipse cx="56" cy="53" rx="4" ry="6" fill="#332842"/><ellipse cx="75" cy="53" rx="4" ry="6" fill="#332842"/><circle cx="55" cy="51" r="1.4" fill="#fff"/><circle cx="74" cy="51" r="1.4" fill="#fff"/><path d="M59 66Q65 70 72 64" fill="none" stroke="#554362" stroke-width="2.5" stroke-linecap="round"/><path d="m59 66 3 5 1-4m5 0 2 3 2-6" fill="#fff4df"/><path d="m63 30 3-7 3 7 7 1-6 5 2 7-6-4-6 4 2-7-6-5Z" fill="#edce8c"/><g fill="#ffe2a0"><circle cx="49" cy="89" r="3"/><circle cx="65" cy="89" r="3"/><circle cx="81" cy="89" r="3"/></g></svg>
